HIERARCHY
ROOT Hips
{
	OFFSET -3.958830 18.904000 13.208200
	CHANNELS 6 Xposition Yposition Zposition Zrotation Yrotation Xrotation 
	JOINT LHipJoint
	{
		OFFSET 0.000000 0.000000 0.000000
		CHANNELS 3 Zrotation Yrotation Xrotation
		JOINT LeftUpLeg
		{
			OFFSET 1.800000 -1.400000 0.085000
			CHANNELS 3 Zrotation Yrotation Xrotation
			JOINT LeftLeg
			{
				OFFSET 2.215000 -6.000000 0.000000
				CHANNELS 3 Zrotation Yrotation Xrotation
				JOINT LeftFoot
				{
					OFFSET 2.500000 -6.900000 0.000000
					CHANNELS 3 Zrotation Yrotation Xrotation
					JOINT LeftToeBase
					{
						OFFSET 0.200000 -0.500000 1.950000
						CHANNELS 3 Zrotation Yrotation Xrotation
						End Site
						{
							OFFSET 0.000000 0.000000 0.000000
						}
					}
				}
			}
		}
	}
	JOINT RHipJoint
	{
		OFFSET 0.000000 0.000000 0.000000
		CHANNELS 3 Zrotation Yrotation Xrotation
		JOINT RightUpLeg
		{
			OFFSET -1.800000 -1.400000 0.085000
			CHANNELS 3 Zrotation Yrotation Xrotation
			JOINT RightLeg
			{
				OFFSET -2.215000 -6.000000 0.000000
				CHANNELS 3 Zrotation Yrotation Xrotation
				JOINT RightFoot
				{
					OFFSET -2.500000 -6.900000 0.000000
					CHANNELS 3 Zrotation Yrotation Xrotation
					JOINT RightToeBase
					{
						OFFSET -0.200000 -0.500000 1.950000
						CHANNELS 3 Zrotation Yrotation Xrotation
						End Site
						{
							OFFSET 0.000000 0.000000 0.000000
						}
					}
				}
			}
		}
	}
	JOINT LowerBack
	{
		OFFSET 0.000000 0.000000 0.000000
		CHANNELS 3 Zrotation Yrotation Xrotation
		JOINT Spine
		{
			OFFSET -0.087000 1.940000 -0.288900
			CHANNELS 3 Zrotation Yrotation Xrotation
			JOINT Spine1
			{
				OFFSET 0.000000 1.950000 0.060000
				CHANNELS 3 Zrotation Yrotation Xrotation
				JOINT Neck
				{
					OFFSET 0.000000 0.000000 0.000000
					CHANNELS 3 Zrotation Yrotation Xrotation
					JOINT Neck1
					{
						OFFSET 0.000000 1.600000 0.340000
						CHANNELS 3 Zrotation Yrotation Xrotation
						JOINT Head
						{
							OFFSET 0.000000 1.667000 -0.240000
							CHANNELS 3 Zrotation Yrotation Xrotation
							End Site
							{
								OFFSET 0.000000 0.000000 0.000000
							}
						}
					}
				}
				JOINT LeftShoulder
				{
					OFFSET 0.000000 0.000000 0.000000
					CHANNELS 3 Zrotation Yrotation Xrotation
					JOINT LeftArm
					{
						OFFSET 2.700000 1.550000 -0.730000
						CHANNELS 3 Zrotation Yrotation Xrotation
						JOINT LeftForeArm
						{
							OFFSET 5.450000 0.000000 0.000000
							CHANNELS 3 Zrotation Yrotation Xrotation
							JOINT LeftHand
							{
								OFFSET 3.450000 0.000000 0.000000
								CHANNELS 3 Zrotation Yrotation Xrotation
								JOINT LeftHandIndex1
								{
									OFFSET 0.750000 0.000000 0.000000
									CHANNELS 3 Zrotation Yrotation Xrotation
									End Site
									{
										OFFSET 0.000000 0.000000 0.000000
									}
								}
							}
						}
					}
				}
				JOINT RightShoulder
				{
					OFFSET 0.000000 0.000000 0.000000
					CHANNELS 3 Zrotation Yrotation Xrotation
					JOINT RightArm
					{
						OFFSET -2.700000 1.550000 -0.730000
						CHANNELS 3 Zrotation Yrotation Xrotation
						JOINT RightForeArm
						{
							OFFSET -5.450000 0.000000 0.000000
							CHANNELS 3 Zrotation Yrotation Xrotation
							JOINT RightHand
							{
								OFFSET -3.450000 0.000000 0.000000
								CHANNELS 3 Zrotation Yrotation Xrotation
								JOINT RightHandIndex1
								{
									OFFSET -0.750000 0.000000 0.000000
									CHANNELS 3 Zrotation Yrotation Xrotation
									End Site
									{
										OFFSET 0.000000 0.000000 0.000000
									}
								}
							}
						}
					}
				}
			}
		}
	}
}
MOTION
Frames: 7
Frame Time: 0.016667
11.978840 16.970860 -17.690830 -4.627435 6.688311 -2.665755 -14.870853 11.613761 2.055242 2.235409 0.066602 -4.072798 -8.061646 6.564069 14.883879 -0.338532 4.426663 3.057411 0.337040 0.363780 0.052500 18.834152 -10.023476 5.319549 -34.037477 -0.357972 -38.676867 27.102291 -10.699998 17.012422 -0.395738 -6.321587 1.715998 0.378430 0.271000 0.143880 -4.937035 1.445780 -8.609357 24.664290 -2.546225 10.079316 -8.373304 -0.745166 16.413386 7.262171 5.406186 -18.818225 12.527297 -19.214006 16.893422 0.852140 -16.230130 -14.278890 -9.456856 -35.530269 13.737580 -9.986880 -16.195291 3.681436 7.797875 -2.009898 -0.541294 -4.025060 3.047852 0.071300 0.107270 -0.099130 0.130680 -6.597982 36.583230 5.050371 0.345060 21.306559 -17.663985 -65.783870 49.264052 -33.076475 2.716313 -1.849694 -0.096160 0.265040 0.073330 0.084570 
11.977680 16.907110 -17.712370 -4.317949 7.091956 -3.578123 -14.871937 11.749817 2.095811 1.932997 -0.027087 -4.188840 -7.864696 6.939888 17.318267 -0.303750 4.561970 2.987791 0.471850 0.534460 0.117270 18.794670 -10.190976 5.077151 -33.126397 -0.488612 -37.587760 23.943153 -9.706817 16.438482 -0.368489 -5.853106 1.862964 0.465570 0.204990 0.102490 -4.899411 1.364501 -8.527483 24.910372 -2.821603 10.916755 -7.884981 -1.038108 17.710141 7.265157 4.360735 -18.455595 10.639262 -19.109167 17.637055 3.223090 -16.890350 -17.960920 -7.958539 -35.398165 13.134816 -11.693795 -18.346147 4.424481 7.069495 -0.557384 -0.477656 -3.937596 3.027575 0.119950 0.012550 -0.029760 0.182580 -7.592220 37.081904 5.072269 0.110282 20.232140 -19.100630 -65.039824 48.009096 -32.295328 2.810752 -1.934869 -0.068460 0.306840 -0.013070 0.103820 
11.971290 16.784290 -17.709120 -3.095057 5.691435 -3.236754 -14.920262 11.853285 2.251949 1.129520 -0.369921 -5.501794 -9.333779 8.058694 20.704243 -0.266296 5.068753 2.761955 0.479690 0.528700 0.173060 18.709841 -10.207306 4.935477 -31.844795 -0.263412 -38.619708 19.792743 -8.101231 14.808042 -0.276911 -5.102253 2.096035 0.466040 0.173100 0.140940 -4.706669 1.207364 -8.549478 23.063841 -2.465489 11.853389 -7.095120 -0.856724 17.490584 7.529974 4.503339 -18.816275 10.888956 -17.800724 17.597466 1.974210 -14.883910 -18.994180 -8.845057 -35.668901 13.761832 -13.103997 -17.107410 4.429525 7.440063 -1.313785 -0.529512 -3.933965 3.032791 0.168630 0.016060 0.011770 0.144090 -7.224882 37.748707 4.513908 0.201513 21.480386 -19.062787 -61.858180 44.957668 -29.141797 2.799895 -1.925288 -0.072670 0.297090 0.007390 0.058720 
11.938990 16.673630 -17.719950 -1.374054 6.003891 -4.223339 -14.968707 12.030730 2.379912 -0.195824 -0.676818 -6.253819 -8.722113 8.703583 24.780362 -0.144404 5.482882 2.621051 0.482530 0.542550 0.121110 18.623562 -10.292070 4.681003 -30.994637 -0.592988 -38.032066 15.209593 -6.702945 13.104395 -0.189605 -4.442891 2.357712 0.460490 0.186460 0.105630 -4.532162 0.884067 -8.564611 21.485075 -2.664584 13.489533 -6.903816 -0.717213 18.887144 7.369906 3.109714 -19.279939 8.540095 -18.425838 18.461258 4.297830 -16.706960 -20.447690 -8.030622 -36.426069 13.793661 -15.593555 -18.222022 4.584774 9.597165 0.849352 -0.474335 -3.914973 3.058639 0.177780 -0.027340 0.009930 0.180070 -7.334646 39.994281 4.567787 -1.096362 19.541613 -21.644768 -59.899483 42.866511 -27.064976 3.047573 -2.044145 -0.068360 0.330860 -0.002080 0.098980 
11.920190 16.554220 -17.709690 0.156535 5.356183 -3.905165 -15.034406 12.118212 2.553922 -1.177994 -1.219417 -7.943654 -9.315892 9.644002 28.049720 -0.016509 5.958479 2.423950 0.444310 0.481090 0.116390 18.536845 -10.263622 4.525487 -29.892457 -0.591499 -38.889021 11.201958 -5.659431 11.953774 -0.126581 -3.870818 2.555265 0.403210 0.151390 0.119030 -4.304767 0.612962 -8.612251 19.591407 -2.135579 14.578482 -6.651249 -0.031556 17.921789 7.166784 3.248596 -19.528739 8.740751 -19.242241 18.624431 4.259960 -17.218470 -20.235960 -8.298569 -36.317713 13.607801 -16.536046 -18.539113 4.653333 8.440433 -1.079672 -0.521630 -3.856082 3.085171 0.187280 -0.048710 0.016530 0.147770 -6.814158 40.174229 4.919909 -1.175082 19.261268 -21.521476 -57.717924 40.513609 -24.762312 3.038448 -2.041361 -0.050880 0.276860 0.015150 0.088240 
11.899350 16.446500 -17.705400 0.919435 4.442126 -4.380759 -15.102263 12.263190 2.715648 -1.313796 -1.528566 -8.852033 -10.204156 10.646837 30.365867 0.095415 6.448493 2.223406 0.401040 0.418710 0.120650 18.431030 -10.230191 4.393440 -28.613024 -0.275750 -39.095001 8.598724 -4.951100 11.103472 -0.103872 -3.432401 2.707395 0.345690 0.117630 0.146070 -4.035427 0.268797 -8.662675 18.283354 -1.614159 16.566685 -6.941780 0.832549 17.091840 7.509497 3.949016 -19.928947 9.682708 -19.586009 19.226412 4.429520 -17.004810 -21.241830 -10.621526 -36.215962 13.482345 -16.351863 -18.169470 3.772327 9.623910 -2.487293 -0.713025 -3.827925 3.098956 0.230680 -0.068620 0.051720 0.104790 -5.394793 40.319449 5.427317 -1.215838 18.479509 -21.979828 -56.347925 38.664236 -23.141725 3.032760 -1.998783 -0.041740 0.246950 0.047530 0.066020 
11.877370 16.331750 -17.673540 1.865756 4.045913 -3.835310 -15.157004 12.208375 2.839017 -1.702348 -2.150786 -10.707055 -10.919515 11.771756 33.521766 0.198478 7.031530 2.004048 0.430770 0.450890 0.158910 18.390973 -10.100714 4.361984 -27.918951 -0.106631 -39.792465 7.179651 -4.398661 9.872535 -0.097778 -3.174676 2.793379 0.373020 0.096390 0.133340 -3.890834 0.139327 -8.686304 16.860164 -1.132862 16.649251 -6.234120 1.024008 16.176337 7.526996 3.857148 -19.463762 9.544952 -19.288381 18.717498 4.067270 -16.394030 -21.583850 -12.402680 -35.709956 13.265176 -17.962837 -18.129515 3.458796 9.669969 -5.181526 -0.906051 -3.752238 3.129160 0.239510 -0.080580 0.060630 0.102880 -3.588327 40.020066 5.392705 -2.107042 18.370463 -21.001568 -54.686051 37.096833 -21.515951 2.894064 -1.956184 -0.049130 0.252780 0.028760 0.050820 
